PathFileType	4	(X/Y/Z)	Patient4_TMGait_0pt7_01_left_21.trc.trc
DataRate	CameraRate	NumFrames	NumMarkers	Units	OrigDataRate	OrigDataStartFrame	OrigNumFrames
82.840236686390	82.840236686390	4	33	mm	82.840236686390	1	       141
Frame#	Time	Sacral			L.Shoulder			Chest			R.Shoulder			Neck			R.ASIS			L.ASIS			R.Thigh.Superior			R.Thigh.Lateral			R.Thigh.Inferior			R.Patella			L.Thigh.Superior			L.Thigh.Lateral			L.Thigh.Inferior			L.Patella			L.Shank.Superior			L.Shank.Lateral			L.Shank.Inferior			R.Shank.Superior			R.Shank.Lateral			R.Shank.Inferior			R.Heel			R.Midfoot.Superior			R.Midfoot.Lateral			R.Toe			L.Heel			L.Midfoot.Lateral			L.Midfoot.Superior			L.Toe			L.Elbow			L.Wrist			R.Elbow			R.Wrist			
		X1	Y1	Z1	X2	Y2	Z2	X3	Y3	Z3	X4	Y4	Z4	X5	Y5	Z5	X6	Y6	Z6	X7	Y7	Z7	X8	Y8	Z8	X9	Y9	Z9	X10	Y10	Z10	X11	Y11	Z11	X12	Y12	Z12	X13	Y13	Z13	X14	Y14	Z14	X15	Y15	Z15	X16	Y16	Z16	X17	Y17	Z17	X18	Y18	Z18	X19	Y19	Z19	X20	Y20	Z20	X21	Y21	Z21	X22	Y22	Z22	X23	Y23	Z23	X24	Y24	Z24	X25	Y25	Z25	X26	Y26	Z26	X27	Y27	Z27	X28	Y28	Z28	X29	Y29	Z29	X30	Y30	Z30	X31	Y31	Z31	X32	Y32	Z32	X33	Y33	Z33	

1	24.090000000000	867.659197027330	1013.143234239311	506.603085456511	1053.950802892535	1432.313073332748	301.180898733103	1172.733188930989	1353.966369246912	448.113627775650	1119.306467073041	1435.378815918654	629.700877280077	1081.320883776547	1491.078022876107	453.733999465615	1104.060954633910	942.296260046676	598.965892635147	1060.901726279976	960.925412836443	328.384604227808	1141.563735990401	743.925877447109	571.566662807846	1060.516167343754	635.651451721222	633.687151551474	1133.419131467131	583.765586997920	549.606019006604	1132.839433390875	496.904067825437	553.908468315988	1150.926995905938	789.768771536694	351.510307872145	1107.651214858852	663.281246861706	271.892902041234	1218.429809867742	603.854534267480	323.429985965805	1235.444747199896	514.524759908701	312.976583574085	1170.726364135715	444.443312632142	308.837995919566	1027.461125873105	397.037730956309	269.371985210351	1024.980878393760	265.479706506062	321.070292167164	1108.659225430991	408.438274705969	560.702815870510	1042.656299425104	301.833093751668	622.862649280519	1084.261087247465	209.441818686264	556.377013026386	951.831501660399	43.599652159290	529.434785632499	1125.467340117333	97.627990047133	557.119599305664	1039.239185391354	37.135040693279	598.762923648872	1246.947803395630	41.973701457983	576.547299330900	840.677054077715	190.882939994681	369.784618620871	894.487105275310	150.878061593405	283.888312300830	1000.563536992186	161.925324883944	298.582290648917	1080.210449240976	53.489272454108	259.975671324226	986.399257717924	1080.489352386272	205.465036064189	1110.512776605924	848.279973752272	208.690369697130	1101.794825255595	1089.216830930878	762.057334536334	1256.479891150388	885.358954041884	704.808959595096	
2	24.102071428571	865.692914058712	1014.107410586152	508.142527499574	1052.286911131531	1432.201283666439	301.674615410338	1171.649313297218	1353.790602235660	448.047481168026	1119.556278285563	1435.632128672539	629.875234504291	1080.624225473321	1491.224199825485	454.028890564245	1102.083017511489	942.534563133851	599.792478098760	1058.231226983878	961.350432529346	329.241686530827	1136.760729845542	743.367532186352	572.330380515446	1054.976968137497	635.869666427801	634.694515783493	1127.058408508663	583.258015237095	550.620500975399	1125.654045322671	496.621676834696	555.102687072670	1149.370532817559	793.048472879080	352.215226509892	1108.362664573374	666.067039945120	271.993351586710	1220.069732079525	608.658591090079	323.352520295893	1239.113141574489	520.542104966130	312.585492168302	1178.171004442971	448.695306764302	307.980157632124	1038.461258173415	393.387876472815	268.754009927431	1044.433753754549	262.074298367236	319.175906604065	1100.999807346628	408.319419938259	561.658879420054	1034.334164644273	302.097416848079	623.838207620872	1075.914750934733	209.443824262119	556.969927929948	942.905869727853	43.739647009921	529.542876131148	1116.635150656907	97.585037840871	557.214661938857	1030.298127066015	37.164764370450	598.814543289224	1237.990129509317	41.749685077429	576.684199090221	866.485788537960	176.148358948651	368.219541157256	921.669311212303	140.505643726796	281.600190426671	1026.406190093152	158.014378794612	295.852640319987	1111.891778378717	55.792795296290	255.730759573376	979.166436673270	1081.176507803765	207.535993078936	1084.344416060302	842.552673347093	209.839928293594	1113.610239632345	1089.984420938671	762.130895053808	1280.807264482457	902.141514365890	699.051852163273	
3	24.114142857143	863.754986345892	1015.037192232715	509.622166263869	1050.672765940294	1432.077405654987	302.134147443908	1170.585464059807	1353.591289424324	447.964303901925	1119.787304720641	1435.848576584223	630.026627765934	1079.943329617988	1491.347065358363	454.303249243736	1100.103418110925	942.759478038692	600.600719579264	1055.615815814758	961.722120077801	330.070994034501	1132.022655200246	742.812200471486	573.073527379142	1049.492307527105	636.073666659963	635.683033709479	1120.776732990126	582.747110652465	551.627668991414	1118.540399001468	496.338253219641	556.274596191338	1147.759347950065	796.142158557006	352.921180420556	1108.950084016433	668.698974997759	272.112351588509	1221.486623555427	613.211902717772	323.387098565809	1242.526222269851	526.359374118571	312.313363827262	1185.365274056920	452.831794167426	307.226723724011	1049.419908001453	389.674634344812	268.039226827144	1063.771070303398	258.733630154584	317.275977496902	1093.431894404218	408.198082793862	562.593672846357	1026.115259020634	302.339211830778	624.763865739045	1067.655314961781	209.440921218060	557.544771383921	934.078100150750	43.876361724313	529.642304490604	1107.900573873431	97.545275596066	557.309343242837	1021.453206766956	37.193004556309	598.860807547210	1229.127655479870	41.529504548639	576.815160600642	892.297655038845	161.583803937277	366.407631954933	948.912364006027	130.334755918531	279.174659579178	1052.176905172362	154.261478971634	293.149347200388	1143.455243154546	58.333769219161	251.697154763222	971.905801405303	1081.918974950373	209.498973550306	1058.578971875791	837.252497870529	210.997348817992	1125.315271159291	1090.772229080081	762.120641407821	1304.663843110668	919.045375141209	693.268985718333	
4	24.126214285714	861.863863325617	1015.898817763401	510.970918359086	1049.145190570233	1431.928943575299	302.518841785449	1169.549275650559	1353.344803419241	447.840973230478	1119.970753134298	1435.995389109597	630.122394388334	1079.281285998663	1491.423623349525	454.528271654344	1098.116515370146	942.957265376784	601.365098602844	1053.103764737193	961.989898779833	330.834752164444	1127.384758511441	742.255464771911	573.775641385321	1044.074475911952	636.253343758819	636.627031856926	1114.598184679427	582.227138621320	552.612539307362	1111.513142766007	496.050701791034	557.395765099567	1146.029479966228	798.857166227487	353.626614778882	1109.273513005170	671.017570726216	272.248470039897	1222.452148271571	617.258062830574	323.616531557374	1245.421134681078	531.776585210488	312.260547196367	1192.061719877007	456.743993679399	306.659467789526	1060.296341062753	385.849086094305	267.159202089554	1082.895544508838	255.554230603130	315.381492830727	1085.981483544138	408.071640147209	563.481131224039	1018.034677951223	302.542594601248	625.597361285101	1059.502698277565	209.429375183751	558.083356438741	925.374668085535	44.006753387324	529.727637926953	1099.291441000746	97.511656485201	557.403451322630	1012.731367229879	37.218903967878	598.898683126625	1220.387694562561	41.319507061421	576.935592280923	918.168412763271	147.399820048280	364.184407229415	976.309030931536	120.595347460250	276.541524501102	1077.832166885901	150.859717555172	290.519618467398	1174.796066508464	61.388897950625	248.095183007533	964.555077608621	1082.794180639686	211.250598201453	1033.520907207325	832.790473193681	212.194013612511	1136.864646247778	1091.645558283588	761.910133198940	1327.612336584468	936.308835699180	687.407064114505	
